<svg width="44" height="20" viewBox="0 0 44 20" fill="none" xmlns="http://www.w3.org/2000/svg">
<rect x="27.6279" y="4.01807" width="16.3721" height="15.9819" rx="4" fill="#CDCDCD"/>
<rect x="28.1279" y="4.51807" width="15.3721" height="14.9819" rx="3.5" stroke="#505051" stroke-opacity="0.8956"/>
<rect x="0.5" y="4.51807" width="15.3721" height="14.9819" rx="3.5" fill="white"/>
<rect x="0.5" y="4.51807" width="15.3721" height="14.9819" rx="3.5" stroke="#C0C0C0"/>
<rect x="20.8872" y="1.97705" width="18.4186" height="17.9796" rx="4" fill="#E1E1E1"/>
<rect x="21.3872" y="2.47705" width="17.4186" height="16.9796" rx="3.5" stroke="#404040" stroke-opacity="0.8956"/>
<rect x="5.01465" y="2.44336" width="17.4186" height="16.9796" rx="3.5" fill="white"/>
<rect x="5.01465" y="2.44336" width="17.4186" height="16.9796" rx="3.5" stroke="#818181"/>
<rect x="12.1777" y="0.5" width="19.4651" height="18.9773" rx="3.5" fill="white"/>
<rect x="12.1777" y="0.5" width="19.4651" height="18.9773" rx="3.5" stroke="black"/>
<path d="M20.0052 9.70608C19.6679 8.86486 19.6315 7.93299 19.902 7.06799C20.1725 6.20299 20.7333 5.45792 21.4897 4.9587C22.2462 4.45949 23.1518 4.23677 24.0534 4.32817C24.9551 4.41958 25.7976 4.81951 26.4385 5.46036C27.0793 6.10122 27.4792 6.9437 27.5707 7.84538C27.6621 8.74707 27.4393 9.65266 26.9401 10.4091C26.4409 11.1655 25.6958 11.7264 24.8308 11.9969C23.9658 12.2674 23.034 12.2309 22.1927 11.8936L21.4727 12.6137H20.1602V13.9262H18.8477V15.2387H16.6602V13.0512L20.0052 9.70608Z" fill="#766D6D" stroke="black" stroke-width="0.65625" stroke-linecap="round" stroke-linejoin="round"/>
<path opacity="0.5" d="M24.7539 7.36377C24.8747 7.36377 24.9727 7.26583 24.9727 7.14502C24.9727 7.02421 24.8747 6.92627 24.7539 6.92627C24.6331 6.92627 24.5352 7.02421 24.5352 7.14502C24.5352 7.26583 24.6331 7.36377 24.7539 7.36377Z" stroke="black" stroke-width="0.65625" stroke-linecap="round" stroke-linejoin="round"/>
<path d="M24.9316 5.48535C25.8153 5.48535 26.5312 6.20131 26.5312 7.08496C26.5312 7.96862 25.8153 8.68457 24.9316 8.68457C24.048 8.68457 23.332 7.96862 23.332 7.08496C23.332 6.20131 24.048 5.48535 24.9316 5.48535Z" fill="white" stroke="black" stroke-width="0.3"/>
</svg>
