<svg width="16" height="16" viewBox="0 0 16 16" fill="none" xmlns="http://www.w3.org/2000/svg">
<path d="M2.00023 2.5C2.00023 2.22386 2.22408 2 2.50023 2C2.77637 2 3.00023 2.22386 3.00023 2.5V13.5C3.00023 13.7761 2.77637 14 2.50023 14C2.22408 14 2.00023 13.7761 2.00023 13.5V2.5ZM14 3.00176C14 2.19 13.0839 1.71649 12.4216 2.18598L5.42124 7.14909C4.86149 7.54594 4.85857 8.37575 5.4155 8.77654L12.4159 13.8142C13.0774 14.2903 14 13.8176 14 13.0026V3.00176ZM5.99961 7.96486L13 3.00176L13 13.0026L5.99961 7.96486Z" fill="black" fill-opacity="0.8956"/>
</svg>
