<svg width="16" height="20" viewBox="0 0 16 20" fill="none" xmlns="http://www.w3.org/2000/svg">
<path d="M10.7061 6.5957C10.8924 6.46089 11.1477 6.47046 11.3232 6.61914C11.4986 6.7679 11.5496 7.01776 11.4473 7.22363L11.4453 7.22656C11.4453 7.22656 11.4429 7.23133 11.4414 7.23438C11.4378 7.24154 11.4326 7.25294 11.4258 7.2666C11.4117 7.2948 11.3897 7.33703 11.3633 7.38965C11.3103 7.49514 11.2349 7.6469 11.1426 7.8291C10.9576 8.19405 10.7068 8.68662 10.4434 9.19043C10.1805 9.69328 9.90213 10.2123 9.66504 10.6318C9.54683 10.841 9.43623 11.0303 9.34082 11.1816C9.2549 11.3179 9.15459 11.4674 9.06055 11.5615C8.47485 12.1471 7.52523 12.147 6.93945 11.5615C6.3538 10.9758 6.35379 10.0262 6.93945 9.44043C7.06624 9.31373 7.37871 9.06676 7.73242 8.7959C8.10143 8.51333 8.5555 8.17382 8.99512 7.84863C9.43513 7.52315 9.86416 7.21018 10.1816 6.97852C10.3399 6.86301 10.471 6.7667 10.5625 6.7002C10.608 6.66713 10.6446 6.64074 10.6689 6.62305C10.6808 6.61442 10.69 6.60706 10.6963 6.60254C10.6993 6.60039 10.7041 6.59766 10.7041 6.59766L10.7061 6.5957ZM8 3C11.866 3 15 6.13401 15 10C15 12.4944 13.6947 14.6838 11.7324 15.9229C11.499 16.0701 11.1904 16 11.043 15.7666C10.8958 15.5332 10.9651 15.2246 11.1982 15.0771C12.7498 14.0974 13.8184 12.4277 13.9775 10.5H12.4688C12.2027 10.4998 12 10.2661 12 10C12 9.73389 12.2027 9.50022 12.4688 9.5H13.9775C13.7369 6.58391 11.4127 4.26025 8.49609 4.02148V5.53418C8.49591 5.79825 8.26412 6 8 6C7.7319 6 7.49632 5.79538 7.49609 5.52734V4.02246C6.21476 4.12903 5.04785 4.6369 4.12207 5.42188L5.19043 6.49023C5.37791 6.67828 5.35649 6.98668 5.16895 7.1748C4.98098 7.36326 4.67177 7.3852 4.4834 7.19727L3.41602 6.12988C2.63383 7.05541 2.12804 8.22058 2.02246 9.5H3.53125C3.7973 9.50022 4 9.73389 4 10C4 10.2661 3.7973 10.4998 3.53125 10.5H2.02246C2.18156 12.4277 3.25017 14.0974 4.80176 15.0771C5.03492 15.2246 5.10421 15.5332 4.95703 15.7666C4.80964 16 4.50104 16.0701 4.26758 15.9229C2.30533 14.6838 1 12.4944 1 10C1 6.13401 4.13401 3 8 3Z" fill="black" fill-opacity="0.8956"/>
</svg>
